<svg width="55" height="58" viewBox="0 0 55 58" fill="none" xmlns="http://www.w3.org/2000/svg">
<path d="M32.5625 24.3146H39.3125" stroke="#FFA723" stroke-width="3.375" stroke-linecap="round" stroke-linejoin="round"/>
<path d="M15.6875 24.3146H22.4375" stroke="#FFA723" stroke-width="3.375" stroke-linecap="round" stroke-linejoin="round"/>
<path d="M19.0625 20.7124V27.9168" stroke="#FFA723" stroke-width="3.375" stroke-linecap="round" stroke-linejoin="round"/>
<path d="M36.7813 12.5401L18.2188 12.6076C15.6406 12.6128 13.1462 13.5854 11.1719 15.3551C9.1976 17.1248 7.8691 19.579 7.41879 22.2884L3.95941 41.2223C3.73729 42.5445 3.91671 43.9078 4.4715 45.1136C5.02629 46.3193 5.92744 47.3044 7.04357 47.9251C8.15969 48.5459 9.43243 48.7699 10.6762 48.5644C11.92 48.359 13.0697 47.7349 13.9579 46.7831L23.0704 36.0217L36.7813 35.9541C39.6904 35.9541 42.4803 34.7207 44.5374 32.5252C46.5944 30.3297 47.75 27.352 47.75 24.2471C47.75 21.1422 46.5944 18.1645 44.5374 15.969C42.4803 13.7735 39.6904 12.5401 36.7813 12.5401Z" stroke="#FFA723" stroke-width="3.375" stroke-linecap="round" stroke-linejoin="round"/>
<path d="M47.5812 22.2209L51.0406 41.2223C51.2627 42.5445 51.0833 43.9078 50.5285 45.1136C49.9738 46.3193 49.0726 47.3044 47.9565 47.9251C46.8403 48.5459 45.5676 48.7699 44.3238 48.5645C43.0801 48.359 41.9303 47.7349 41.0422 46.7831L31.9297 35.9766" stroke="#FFA723" stroke-width="3.375" stroke-linecap="round" stroke-linejoin="round"/>
</svg>
