<svg width="41" height="44" viewBox="0 0 41 44" fill="none" xmlns="http://www.w3.org/2000/svg">
<path d="M20.5 23.316C23.2614 23.316 25.5 20.8598 25.5 17.8299C25.5 14.8 23.2614 12.3438 20.5 12.3438C17.7386 12.3438 15.5 14.8 15.5 17.8299C15.5 20.8598 17.7386 23.316 20.5 23.316Z" stroke="#FFA723" stroke-width="2.5" stroke-linecap="round" stroke-linejoin="round"/>
<path d="M33 17.8299C33 30.1736 20.5 39.7743 20.5 39.7743C20.5 39.7743 8 30.1736 8 17.8299C8 14.1923 9.31696 10.7038 11.6612 8.13169C14.0054 5.55958 17.1848 4.11458 20.5 4.11458C23.8152 4.11458 26.9946 5.55958 29.3388 8.13169C31.683 10.7038 33 14.1923 33 17.8299Z" stroke="#FFA723" stroke-width="2.5" stroke-linecap="round" stroke-linejoin="round"/>
</svg>
