<svg width="64" height="64" viewBox="0 0 64 64" fill="none" xmlns="http://www.w3.org/2000/svg">
<path d="M52.5108 52.5061C56.8066 48.2103 51.1081 35.547 39.7829 24.2218C28.4577 12.8966 15.7944 7.19815 11.4986 11.4939C7.20287 15.7897 12.9014 28.453 24.2266 39.7782C35.5518 51.1034 48.2151 56.8019 52.5108 52.5061Z" stroke="#E14E4E" stroke-width="4" stroke-linecap="round" stroke-linejoin="round"/>
<path d="M39.7829 39.7782C51.1081 28.453 56.8066 15.7897 52.5108 11.4939C48.2151 7.19812 35.5518 12.8966 24.2266 24.2218C12.9014 35.547 7.20287 48.2103 11.4986 52.5061C15.7944 56.8018 28.4577 51.1034 39.7829 39.7782Z" stroke="#FFA723" stroke-width="4" stroke-linecap="round" stroke-linejoin="round"/>
<path d="M32 35C33.6569 35 35 33.6569 35 32C35 30.3431 33.6569 29 32 29C30.3431 29 29 30.3431 29 32C29 33.6569 30.3431 35 32 35Z" fill="#29C14B"/>
</svg>
