<svg width="55" height="66" viewBox="0 0 55 66" fill="none" xmlns="http://www.w3.org/2000/svg">
<path d="M51.2812 30.875L6.3125 3.37499C5.93395 3.14148 5.49995 3.01319 5.05528 3.00336C4.61061 2.99352 4.17136 3.1025 3.78285 3.31904C3.39434 3.53559 3.07064 3.85186 2.84514 4.23524C2.61963 4.61862 2.50049 5.05521 2.5 5.49999V60.5C2.50049 60.9448 2.61963 61.3814 2.84514 61.7647C3.07064 62.1481 3.39434 62.4644 3.78285 62.6809C4.17136 62.8975 4.61061 63.0065 5.05528 62.9966C5.49995 62.9868 5.93395 62.8585 6.3125 62.625L51.2812 35.125C51.6505 34.9066 51.9565 34.5958 52.169 34.2232C52.3816 33.8506 52.4934 33.429 52.4934 33C52.4934 32.571 52.3816 32.1494 52.169 31.7768C51.9565 31.4042 51.6505 31.0934 51.2812 30.875Z" fill="white" stroke="white" stroke-width="5" stroke-linecap="round" stroke-linejoin="round"/>
</svg>
